<svg width="66" height="66" viewBox="0 0 66 66" fill="none" xmlns="http://www.w3.org/2000/svg">
<g clip-path="url(#clip0)">
<path d="M51.5112 34.2891C46.4753 34.2891 42.0371 36.8949 39.4731 40.8291C37.3839 35.7644 33.3294 31.7099 28.2648 29.6212C32.1984 27.0567 34.8048 22.6185 34.8048 17.5826C34.8048 9.6644 28.363 3.2226 20.4448 3.2226C12.5266 3.2226 6.08429 9.6644 6.08429 17.5826C6.08429 22.6185 8.69061 27.0567 12.6248 29.6212C5.1477 32.7049 -0.128906 40.0717 -0.128906 48.649V55.898C-0.128906 59.8191 3.06103 63.009 6.9821 63.009H33.9064C37.0722 63.009 39.7596 60.9304 40.6791 58.0663C43.3136 61.0931 47.1924 63.009 51.5107 63.009C59.4294 63.009 65.8712 56.5672 65.8712 48.649C65.8712 40.7309 59.4294 34.2891 51.5112 34.2891ZM9.95148 17.5826C9.95148 11.7969 14.6586 7.08979 20.4443 7.08979C26.2305 7.08979 30.9376 11.7969 30.9376 17.5826C30.9376 23.3688 26.2305 28.0754 20.4443 28.0754C14.6586 28.0754 9.95148 23.3683 9.95148 17.5826ZM37.1508 55.898C37.1508 57.6866 35.6955 59.1418 33.9064 59.1418H6.9821C5.19352 59.1418 3.73829 57.6866 3.73829 55.898V48.649C3.73829 39.4373 11.2325 31.9426 20.4448 31.9426C29.6566 31.9426 37.1513 39.4373 37.1513 48.649V55.898H37.1508ZM51.5112 59.1418C45.7256 59.1418 41.0185 54.4347 41.0185 48.649C41.0185 42.8634 45.7256 38.1563 51.5112 38.1563C57.2969 38.1563 62.004 42.8634 62.004 48.649C62.004 54.4347 57.2969 59.1418 51.5112 59.1418Z" fill="#449DD1"/>
<path d="M55.6534 46.7155H53.4449V44.507C53.4449 43.439 52.5788 42.5734 51.5113 42.5734C50.4433 42.5734 49.5777 43.439 49.5777 44.507V46.7155H47.3691C46.3011 46.7155 45.4355 47.5811 45.4355 48.6491C45.4355 49.7171 46.3011 50.5827 47.3691 50.5827H49.5777V52.7912C49.5777 53.8592 50.4433 54.7248 51.5113 54.7248C52.5788 54.7248 53.4449 53.8592 53.4449 52.7912V50.5827H55.6534C56.7214 50.5827 57.587 49.7171 57.587 48.6491C57.587 47.5811 56.7214 46.7155 55.6534 46.7155Z" fill="#449DD1"/>
</g>
<defs>
<clipPath id="clip0">
<rect width="66" height="66" fill="white"/>
</clipPath>
</defs>
</svg>
