<svg width="56" height="56" viewBox="0 0 56 56" fill="none" xmlns="http://www.w3.org/2000/svg">
<g clip-path="url(#clip0)">
<path d="M43.7065 29.0938C39.4336 29.0938 35.6679 31.3048 33.4923 34.6429C31.7197 30.3456 28.2795 26.9054 23.9822 25.1332C27.3199 22.9573 29.5313 19.1915 29.5313 14.9186C29.5313 8.20014 24.0655 2.73438 17.3471 2.73438C10.6286 2.73438 5.16243 8.20014 5.16243 14.9186C5.16243 19.1915 7.37386 22.9573 10.7119 25.1332C4.36775 27.7497 -0.109375 34.0003 -0.109375 41.278V47.4287C-0.109375 50.7556 2.59723 53.4623 5.92421 53.4623H28.7691C31.4552 53.4623 33.7354 51.6986 34.5156 49.2684C36.7509 51.8366 40.042 53.4623 43.7061 53.4623C50.425 53.4623 55.8907 47.9965 55.8907 41.278C55.8907 34.5596 50.425 29.0938 43.7065 29.0938ZM8.44368 14.9186C8.44368 10.0095 12.4376 6.01563 17.3467 6.01563C22.2561 6.01563 26.2501 10.0095 26.2501 14.9186C26.2501 19.8281 22.2561 23.8216 17.3467 23.8216C12.4376 23.8216 8.44368 19.8277 8.44368 14.9186ZM31.5219 47.4287C31.5219 48.9463 30.2871 50.181 28.7691 50.181H5.92421C4.40663 50.181 3.17188 48.9463 3.17188 47.4287V41.278C3.17188 33.462 9.5306 27.1028 17.3471 27.1028C25.1631 27.1028 31.5223 33.462 31.5223 41.278V47.4287H31.5219ZM43.7065 50.181C38.7974 50.181 34.8035 46.1871 34.8035 41.278C34.8035 36.369 38.7974 32.3751 43.7065 32.3751C48.6156 32.3751 52.6095 36.369 52.6095 41.278C52.6095 46.1871 48.6156 50.181 43.7065 50.181Z" fill="black" fill-opacity="0.5"/>
<path d="M47.2211 39.6373H45.3472V37.7634C45.3472 36.8572 44.6123 36.1228 43.7066 36.1228C42.8004 36.1228 42.0659 36.8572 42.0659 37.7634V39.6373H40.192C39.2858 39.6373 38.5514 40.3718 38.5514 41.278C38.5514 42.1842 39.2858 42.9186 40.192 42.9186H42.0659V44.7925C42.0659 45.6987 42.8004 46.4331 43.7066 46.4331C44.6123 46.4331 45.3472 45.6987 45.3472 44.7925V42.9186H47.2211C48.1273 42.9186 48.8617 42.1842 48.8617 41.278C48.8617 40.3718 48.1273 39.6373 47.2211 39.6373Z" fill="black" fill-opacity="0.5"/>
</g>
<defs>
<clipPath id="clip0">
<rect width="56" height="56" fill="white"/>
</clipPath>
</defs>
</svg>
