<svg id="Camada_1" data-name="Camada 1" xmlns="http://www.w3.org/2000/svg" viewBox="0 0 330.01 259.96"><defs><style>.cls-1{fill:#449dd1;}.cls-2{fill:#bce5f5;}.cls-3{fill:#fefefe;}</style></defs><title>post_chat</title><path class="cls-1" d="M395.94,379.86c-11.48-7.93-24.26-13.78-35.65-21.76-10.09-7.07-20.82-8.57-32.79-8.41-38.46.5-76.94.21-115.41.17-14.14,0-27.25-8.89-31.42-21.22-1.16-3.43-1.92-6.94-.58-10.53,2.28.75,4.62.29,6.93.29q82.35,0,164.69,0c1.72,0,3.65.84,5.19-.73,7.9-1.15,15.16-3.44,20.1-10.39,4.22-5.94,5.82-12.64,5.83-19.74.06-30.64,0-61.28,0-91.91,0-8.23-.59-6.58,7-6.75,1,0,2,0,3,0,13.2.25,20.47,6.83,22.2,20.07a3.53,3.53,0,0,1,0,2.76c-.39,24.73-.11,49.47-.15,74.2,0,12.12-.2,24.23.12,36.35a4.5,4.5,0,0,0,.86,1.65v2c-.92,2.66-.68,5.54-1.54,8.22-2.84,8.75-8.43,14.74-17.68,16.29-4.15.7-4.64,2.32-3.67,5.94,1.5,5.61,3.15,11.19,4.36,16.88.48,2.24,1.37,4.54-.46,6.63Z" transform="translate(-85.92 -119.9)"/><path class="cls-1" d="M415.93,323.91l-.43,0h-.44c-.92-1-.6-2.2-.6-3.33,0-34.62-.09-69.24,0-103.86a.92.92,0,0,1,1.43-.7Z" transform="translate(-85.92 -119.9)"/><path class="cls-2" d="M415.93,216h-.82c-1.19-1.57-.65-3.26-.34-4.94l.3-2.09a4.91,4.91,0,0,1,.86.05Z" transform="translate(-85.92 -119.9)"/><path class="cls-1" d="M85.92,155l0-6c3.78-15.2,18.49-27,36.09-29.1,6.65.06,13.3.16,19.94.16H325.53c2.16,0,4.32-.1,6.47-.16,19.25,2,32.31,16.38,32.32,35.65q0,58.42,0,116.84c0,13.9-7.18,23.59-20.52,27.61a48.84,48.84,0,0,1-14.23,2.16q-72.42-.09-144.85-.09a15.66,15.66,0,0,0-8.44,2.33Q145,323,113.64,341.36c-1,.57-2,1-3.58,1.77,0-5.82,2.41-10.63,3.57-15.67,1.64-7.11,3.39-14.22,5.63-21.15,1.23-3.79-.29-4.58-3.38-5.06a43.06,43.06,0,0,1-23.07-10.86A21.14,21.14,0,0,1,86,278Q85.95,216.51,85.92,155Z" transform="translate(-85.92 -119.9)"/><path class="cls-1" d="M356.9,317.65c-1.62,2.25-4,1.21-6,1.21q-81.39.09-162.79.1c-2.37,0-4.87-.84-7.22.93-.72.55-.68-1.07-.8-1.78a6.16,6.16,0,0,1,1.74-.55Q269.37,317.58,356.9,317.65Z" transform="translate(-85.92 -119.9)"/><path class="cls-1" d="M414.77,211c.11,1.65.22,3.3.34,4.94q0,54-.05,107.9c-1.7-1.2-1.1-3-1.1-4.58q0-52,0-104C414,213.84,413.53,212.27,414.77,211Z" transform="translate(-85.92 -119.9)"/><path class="cls-3" d="M276,206.17A18.25,18.25,0,0,1,294.48,188a18.7,18.7,0,0,1,18.3,18.57c-.06,9.68-8.9,18.33-18.71,18.29S275.9,216.26,276,206.17Z" transform="translate(-85.92 -119.9)"/><path class="cls-3" d="M206.94,206.43c.11-10.6,8.28-18.66,18.69-18.42,9.6.22,18.08,8.86,18,18.34-.07,9.93-8.65,18.56-18.41,18.52A18.47,18.47,0,0,1,206.94,206.43Z" transform="translate(-85.92 -119.9)"/><path class="cls-3" d="M174.06,206.38A18.19,18.19,0,0,1,156,224.87c-9.79,0-18.49-8.69-18.43-18.44A18.7,18.7,0,0,1,156,188C166.18,188,174.06,196,174.06,206.38Z" transform="translate(-85.92 -119.9)"/></svg>