<svg width="23" height="23" viewBox="0 0 23 23" fill="none" xmlns="http://www.w3.org/2000/svg">
<g clip-path="url(#clip0)">
<path d="M11.4618 21.0515H2.86543C2.33818 21.0515 1.9103 20.6236 1.9103 20.0964V2.90368C1.9103 2.37644 2.33823 1.94856 2.86543 1.94856H11.4618C11.99 1.94856 12.4169 1.52162 12.4169 0.993427C12.4169 0.465235 11.99 0.038208 11.4618 0.038208H2.86543C1.28562 0.038208 0 1.32387 0 2.90368V20.0964C0 21.6762 1.28562 22.9618 2.86543 22.9618H11.4618C11.99 22.9618 12.4169 22.5349 12.4169 22.0067C12.4169 21.4785 11.99 21.0515 11.4618 21.0515Z" fill="black" fill-opacity="0.6"/>
<path d="M22.7154 10.8199L16.9081 5.08901C16.5337 4.7184 15.9281 4.72321 15.5575 5.09858C15.1869 5.47394 15.1907 6.07855 15.5671 6.44915L19.7172 10.5448H8.59636C8.06817 10.5448 7.64124 10.9718 7.64124 11.4999C7.64124 12.0281 8.06817 12.4551 8.59636 12.4551H19.7172L15.5671 16.5508C15.1908 16.9214 15.1879 17.526 15.5575 17.9014C15.7447 18.0905 15.9911 18.186 16.2376 18.186C16.4802 18.186 16.7228 18.0943 16.9081 17.9109L22.7154 12.18C22.8969 12.0004 23 11.7559 23 11.4999C23 11.244 22.8978 11.0005 22.7154 10.8199Z" fill="black" fill-opacity="0.6"/>
</g>
<defs>
<clipPath id="clip0">
<rect width="23" height="23" fill="white"/>
</clipPath>
</defs>
</svg>
