<svg width="36" height="36" viewBox="0 0 36 36" fill="none" xmlns="http://www.w3.org/2000/svg">
<path d="M32.7857 14.7857H21.8571C21.5021 14.7857 21.2143 14.4979 21.2143 14.1429V3.21429C21.2143 1.43921 19.7751 0 18 0C16.2249 0 14.7857 1.43921 14.7857 3.21429V14.1429C14.7857 14.4979 14.4979 14.7857 14.1429 14.7857H3.21429C1.43921 14.7857 0 16.2249 0 18C0 19.7751 1.43921 21.2143 3.21429 21.2143H14.1429C14.4979 21.2143 14.7857 21.5021 14.7857 21.8571V32.7857C14.7857 34.5608 16.2249 36 18 36C19.7751 36 21.2143 34.5608 21.2143 32.7857V21.8571C21.2143 21.5021 21.5021 21.2143 21.8571 21.2143H32.7857C34.5608 21.2143 36 19.7751 36 18C36 16.2249 34.5608 14.7857 32.7857 14.7857Z" fill="white"/>
</svg>
